<svg width="101" height="17" viewBox="0 0 101 17" fill="none" xmlns="http://www.w3.org/2000/svg">
<path d="M1.58761 14.9645L0.213011 12.6843L2.96221 12.6843L1.58761 14.9645Z" fill="white"/>
<path d="M2.99874 12.5986L1.62414 10.3184L4.37335 10.3184L2.99874 12.5986Z" fill="white"/>
<path d="M4.40866 10.2335L3.03405 7.95329L5.78326 7.95329L4.40866 10.2335Z" fill="white"/>
<path d="M5.81976 7.87048L4.44516 5.59025L7.19436 5.59025L5.81976 7.87048Z" fill="white"/>
<path d="M4.40866 14.9645L3.03405 12.6843L5.78326 12.6843L4.40866 14.9645Z" fill="white"/>
<path d="M5.81976 12.5986L4.44516 10.3184L7.19436 10.3184L5.81976 12.5986Z" fill="white"/>
<path d="M7.23086 10.2335L5.85626 7.95329L8.60546 7.95329L7.23086 10.2335Z" fill="white"/>
<path d="M7.23086 14.9645L5.85626 12.6843L8.60546 12.6843L7.23086 14.9645Z" fill="white"/>
<path d="M8.64199 12.5986L7.26739 10.3184L10.0166 10.3184L8.64199 12.5986Z" fill="white"/>
<path d="M10.0531 14.9645L8.67853 12.6843L11.4277 12.6843L10.0531 14.9645Z" fill="white"/>
<path d="M5.64384 3.12858L7.05472 0.776514L14.991 14.5114L12.4501 14.5114L5.64384 3.12858Z" fill="white"/>
<path d="M26.1508 14.2883H24.2097L23.4382 12.3659H19.9058L19.1764 14.2883H17.2836L20.7256 5.82489H22.6123L26.1508 14.2883ZM22.8655 10.9399L21.6479 7.79931L20.4543 10.9399H22.8655Z" fill="white"/>
<path d="M32.9142 14.2883H31.2203V11.1593C31.2203 10.4973 31.1841 10.0701 31.1118 9.87765C31.0395 9.68136 30.9209 9.52934 30.7561 9.42157C30.5954 9.3138 30.4005 9.25992 30.1714 9.25992C29.8781 9.25992 29.6148 9.3369 29.3818 9.49085C29.1487 9.6448 28.9879 9.84878 28.8995 10.1028C28.8151 10.3568 28.7729 10.8264 28.7729 11.5115V14.2883H27.0791V8.15725H28.6524V9.05786C29.211 8.36508 29.9142 8.01869 30.7622 8.01869C31.1359 8.01869 31.4775 8.08412 31.7869 8.21498C32.0964 8.34199 32.3294 8.50556 32.4862 8.7057C32.6469 8.90583 32.7574 9.13291 32.8177 9.38693C32.882 9.64095 32.9142 10.0047 32.9142 10.4781V14.2883Z" fill="white"/>
<path d="M34.4814 14.6925L36.4164 14.9176C36.4486 15.1332 36.5229 15.2813 36.6394 15.3622C36.8002 15.4776 37.0534 15.5353 37.399 15.5353C37.841 15.5353 38.1726 15.4718 38.3936 15.3448C38.5423 15.2602 38.6548 15.1235 38.7312 14.9349C38.7834 14.8002 38.8095 14.552 38.8095 14.1902V13.2954C38.3032 13.9574 37.6642 14.2883 36.8926 14.2883C36.0326 14.2883 35.3515 13.94 34.8491 13.2434C34.4553 12.693 34.2584 12.0079 34.2584 11.1882C34.2584 10.1605 34.5156 9.37539 35.03 8.83271C35.5484 8.29003 36.1914 8.01869 36.9589 8.01869C37.7506 8.01869 38.4036 8.35161 38.918 9.01745V8.15725H40.5034V13.6591C40.5034 14.3826 40.4411 14.9234 40.3165 15.2813C40.1919 15.6393 40.0171 15.9202 39.7921 16.1242C39.567 16.3282 39.2656 16.4879 38.8879 16.6034C38.5141 16.7188 38.0399 16.7766 37.4653 16.7766C36.3802 16.7766 35.6107 16.5976 35.1566 16.2397C34.7025 15.8856 34.4754 15.4353 34.4754 14.8888C34.4754 14.8349 34.4774 14.7694 34.4814 14.6925ZM35.9945 11.0958C35.9945 11.7462 36.1251 12.2235 36.3863 12.5275C36.6515 12.8277 36.977 12.9778 37.3628 12.9778C37.7767 12.9778 38.1263 12.8239 38.4117 12.516C38.697 12.2042 38.8397 11.7443 38.8397 11.1362C38.8397 10.5012 38.703 10.0297 38.4298 9.72177C38.1565 9.41387 37.8109 9.25992 37.3929 9.25992C36.9871 9.25992 36.6515 9.41195 36.3863 9.716C36.1251 10.0162 35.9945 10.4761 35.9945 11.0958Z" fill="white"/>
<path d="M45.8924 12.337L47.5802 12.6084C47.3632 13.2011 47.0196 13.6533 46.5494 13.965C46.0833 14.273 45.4986 14.4269 44.7953 14.4269C43.6821 14.4269 42.8583 14.0786 42.3238 13.382C41.9019 12.8239 41.6909 12.1196 41.6909 11.269C41.6909 10.2529 41.9682 9.45813 42.5228 8.88467C43.0773 8.30735 43.7786 8.01869 44.6265 8.01869C45.5789 8.01869 46.3304 8.32082 46.881 8.92508C47.4315 9.52549 47.6948 10.4473 47.6706 11.6904H43.427C43.439 12.1715 43.5756 12.5468 43.8369 12.8162C44.0981 13.0818 44.4236 13.2145 44.8134 13.2145C45.0786 13.2145 45.3017 13.1453 45.4825 13.0067C45.6633 12.8681 45.8 12.6449 45.8924 12.337ZM45.9888 10.6974C45.9768 10.2279 45.8502 9.87188 45.6091 9.6294C45.368 9.38308 45.0746 9.25992 44.729 9.25992C44.3593 9.25992 44.0539 9.38886 43.8127 9.64672C43.5716 9.90459 43.4531 10.2548 43.4571 10.6974H45.9888Z" fill="white"/>
<path d="M49.0571 14.2883V5.82489H50.7509V14.2883H49.0571Z" fill="white"/>
<path d="M55.9471 5.82489H59.4795C60.1787 5.82489 60.6991 5.85376 61.0407 5.91149C61.3863 5.96537 61.6937 6.08083 61.963 6.25788C62.2363 6.43492 62.4633 6.67162 62.6442 6.96798C62.825 7.26048 62.9154 7.58955 62.9154 7.95519C62.9154 8.35161 62.8029 8.71532 62.5778 9.04631C62.3568 9.37731 62.0554 9.62556 61.6736 9.79105C62.2121 9.94115 62.6261 10.1971 62.9154 10.5589C63.2048 10.9207 63.3494 11.346 63.3494 11.8348C63.3494 12.2196 63.255 12.5949 63.0661 12.9605C62.8813 13.3223 62.6261 13.6129 62.3006 13.8323C61.9791 14.0478 61.5812 14.1806 61.107 14.2306C60.8096 14.2614 60.0923 14.2806 58.955 14.2883H55.9471V5.82489ZM57.7313 7.23354V9.19064H58.9008C59.596 9.19064 60.028 9.18102 60.1968 9.16178C60.5022 9.12714 60.7413 9.02707 60.9141 8.86157C61.0909 8.69223 61.1794 8.47092 61.1794 8.19766C61.1794 7.93594 61.103 7.72426 60.9503 7.56261C60.8016 7.39711 60.5786 7.29705 60.2812 7.26241C60.1044 7.24316 59.596 7.23354 58.7561 7.23354H57.7313ZM57.7313 10.5993V12.8624H59.383C60.026 12.8624 60.4339 12.8451 60.6067 12.8104C60.8719 12.7642 61.0869 12.6526 61.2517 12.4756C61.4205 12.2947 61.5049 12.0541 61.5049 11.7539C61.5049 11.4999 61.4406 11.2844 61.312 11.1073C61.1834 10.9303 60.9965 10.8014 60.7514 10.7205C60.5102 10.6397 59.9838 10.5993 59.172 10.5993H57.7313Z" fill="white"/>
<path d="M66.4719 14.2883H64.7781V8.15725H66.3514V9.029C66.6206 8.61718 66.8617 8.34584 67.0747 8.21498C67.2917 8.08412 67.5369 8.01869 67.8101 8.01869C68.1959 8.01869 68.5676 8.12068 68.9253 8.32467L68.4009 9.73909C68.1156 9.56205 67.8503 9.47353 67.6052 9.47353C67.3681 9.47353 67.1671 9.53703 67.0024 9.66404C66.8376 9.7872 66.707 10.0124 66.6106 10.3395C66.5181 10.6666 66.4719 11.3517 66.4719 12.3947V14.2883Z" fill="white"/>
<path d="M69.2689 11.1362C69.2689 10.5974 69.4075 10.0759 69.6848 9.57167C69.9621 9.06748 70.3539 8.68261 70.8603 8.41704C71.3707 8.15147 71.9393 8.01869 72.5662 8.01869C73.5347 8.01869 74.3284 8.32082 74.9473 8.92508C75.5661 9.52549 75.8756 10.2856 75.8756 11.2055C75.8756 12.133 75.5621 12.9028 74.9352 13.5147C74.3123 14.1228 73.5267 14.4269 72.5783 14.4269C71.9915 14.4269 71.4309 14.2999 70.8965 14.0459C70.366 13.7919 69.9621 13.4204 69.6848 12.9317C69.4075 12.439 69.2689 11.8405 69.2689 11.1362ZM71.005 11.2228C71.005 11.8309 71.1557 12.2966 71.4571 12.6199C71.7585 12.9432 72.1302 13.1048 72.5722 13.1048C73.0143 13.1048 73.384 12.9432 73.6814 12.6199C73.9828 12.2966 74.1335 11.8271 74.1335 11.2113C74.1335 10.6108 73.9828 10.149 73.6814 9.82569C73.384 9.50239 73.0143 9.34075 72.5722 9.34075C72.1302 9.34075 71.7585 9.50239 71.4571 9.82569C71.1557 10.149 71.005 10.6147 71.005 11.2228Z" fill="white"/>
<path d="M77.1475 14.2883V5.82489H78.8413V10.3164L80.8245 8.15725H82.9102L80.7221 10.3972L83.0669 14.2883H81.2405L79.631 11.5345L78.8413 12.3255V14.2883H77.1475Z" fill="white"/>
<path d="M84.0797 7.32591V5.82489H85.7735V7.32591H84.0797ZM84.0797 14.2883V8.15725H85.7735V14.2883H84.0797Z" fill="white"/>
<path d="M93.3386 14.2883H91.6448V11.1593C91.6448 10.4973 91.6086 10.0701 91.5363 9.87765C91.4639 9.68136 91.3454 9.52934 91.1806 9.42157C91.0199 9.3138 90.825 9.25992 90.5959 9.25992C90.3025 9.25992 90.0393 9.3369 89.8062 9.49085C89.5732 9.6448 89.4124 9.84878 89.324 10.1028C89.2396 10.3568 89.1974 10.8264 89.1974 11.5115V14.2883H87.5035V8.15725H89.0769V9.05786C89.6354 8.36508 90.3387 8.01869 91.1866 8.01869C91.5604 8.01869 91.902 8.08412 92.2114 8.21498C92.5208 8.34199 92.7539 8.50556 92.9106 8.7057C93.0714 8.90583 93.1819 9.13291 93.2422 9.38693C93.3065 9.64095 93.3386 10.0047 93.3386 10.4781V14.2883Z" fill="white"/>
<path d="M94.9059 14.6925L96.8409 14.9176C96.873 15.1332 96.9474 15.2813 97.0639 15.3622C97.2247 15.4776 97.4778 15.5353 97.8234 15.5353C98.2655 15.5353 98.597 15.4718 98.8181 15.3448C98.9668 15.2602 99.0793 15.1235 99.1556 14.9349C99.2079 14.8002 99.234 14.552 99.234 14.1902V13.2954C98.7276 13.9574 98.0887 14.2883 97.3171 14.2883C96.4571 14.2883 95.7759 13.94 95.2736 13.2434C94.8798 12.693 94.6829 12.0079 94.6829 11.1882C94.6829 10.1605 94.9401 9.37539 95.4545 8.83271C95.9729 8.29003 96.6158 8.01869 97.3834 8.01869C98.1751 8.01869 98.8281 8.35161 99.3425 9.01745V8.15725H100.928V13.6591C100.928 14.3826 100.866 14.9234 100.741 15.2813C100.616 15.6393 100.442 15.9202 100.217 16.1242C99.9915 16.3282 99.6901 16.4879 99.3124 16.6034C98.9386 16.7188 98.4644 16.7766 97.8898 16.7766C96.8047 16.7766 96.0351 16.5976 95.581 16.2397C95.1269 15.8856 94.8999 15.4353 94.8999 14.8888C94.8999 14.8349 94.9019 14.7694 94.9059 14.6925ZM96.4189 11.0958C96.4189 11.7462 96.5495 12.2235 96.8107 12.5275C97.076 12.8277 97.4015 12.9778 97.7873 12.9778C98.2012 12.9778 98.5508 12.8239 98.8362 12.516C99.1215 12.2042 99.2641 11.7443 99.2641 11.1362C99.2641 10.5012 99.1275 10.0297 98.8542 9.72177C98.581 9.41387 98.2354 9.25992 97.8174 9.25992C97.4115 9.25992 97.076 9.41195 96.8107 9.716C96.5495 10.0162 96.4189 10.4761 96.4189 11.0958Z" fill="white"/>
</svg>
