<svg width="32" height="32" viewBox="0 0 32 32" fill="none" xmlns="http://www.w3.org/2000/svg">
<rect x="1.02941" y="1.02941" width="29.9412" height="29.9412" rx="3.08824" stroke="#fff" stroke-width="2.05882"/>
<path fill-rule="evenodd" clip-rule="evenodd" d="M19.1579 7C19.1579 6.44772 18.7101 6 18.1579 6H7C6.44771 6 6 6.44772 6 7V11.3158C6 11.8681 6.44772 12.3158 7 12.3158H11.8421C12.3944 12.3158 12.8421 12.7635 12.8421 13.3158V19.1579V24.9999C12.8421 25.5522 13.2898 25.9999 13.8421 25.9999H18.1579C18.7101 25.9999 19.1579 25.5522 19.1579 24.9999V16V7Z" fill="#fff"/>
<path d="M20.2105 7C20.2105 6.44772 20.6582 6 21.2105 6H25.5263C26.0786 6 26.5263 6.44772 26.5263 7V11.3158C26.5263 11.8681 26.0786 12.3158 25.5263 12.3158H21.2105C20.6582 12.3158 20.2105 11.8681 20.2105 11.3158V7Z" fill="#fff"/>
</svg>
