<svg width="14" height="14" viewBox="0 0 14 14" fill="none" xmlns="http://www.w3.org/2000/svg">
<path d="M7.15162 0.282006C4.7688 0.275756 2.67193 1.50857 1.47349 3.37107C1.42037 3.45388 1.47974 3.56326 1.57818 3.56326H2.67662C2.75162 3.56326 2.82193 3.53044 2.8688 3.47263C2.97818 3.33982 3.09537 3.21169 3.2188 3.08982C3.72818 2.58201 4.32037 2.18201 4.97974 1.90388C5.66099 1.61638 6.38599 1.46951 7.13443 1.46951C7.88287 1.46951 8.60787 1.61482 9.28912 1.90388C9.94849 2.18201 10.5407 2.58201 11.0501 3.08982C11.5594 3.59763 11.9579 4.18982 12.2376 4.84763C12.5266 5.52888 12.6719 6.25232 12.6719 7.00076C12.6719 7.74919 12.5251 8.47263 12.2376 9.15388C11.9594 9.81169 11.5594 10.4039 11.0501 10.9117C10.5407 11.4195 9.94849 11.8195 9.28912 12.0976C8.60733 12.3856 7.87454 12.5333 7.13443 12.532C6.38599 12.532 5.66099 12.3851 4.97974 12.0976C4.32166 11.8198 3.72366 11.4171 3.2188 10.9117C3.09537 10.7883 2.97974 10.6601 2.8688 10.5289C2.82193 10.4711 2.75005 10.4383 2.67662 10.4383H1.57818C1.47974 10.4383 1.4188 10.5476 1.47349 10.6304C2.67037 12.4883 4.75787 13.7195 7.13443 13.7195C10.8251 13.7195 13.8219 10.7492 13.8594 7.06951C13.8969 3.33044 10.8954 0.291381 7.15162 0.282006ZM5.17224 8.75076V7.56326H0.265991C0.197241 7.56326 0.140991 7.50701 0.140991 7.43826V6.56326C0.140991 6.49451 0.197241 6.43826 0.265991 6.43826H5.17224V5.25076C5.17224 5.14607 5.29412 5.08669 5.37537 5.15232L7.59255 6.90232C7.60749 6.91401 7.61958 6.92895 7.62789 6.94601C7.6362 6.96306 7.64052 6.98178 7.64052 7.00076C7.64052 7.01973 7.6362 7.03845 7.62789 7.05551C7.61958 7.07256 7.60749 7.0875 7.59255 7.09919L5.37537 8.84919C5.29412 8.91326 5.17224 8.85544 5.17224 8.75076Z" fill="white"/>
</svg>
