<svg width="84" height="12" viewBox="0 0 84 12" fill="none" xmlns="http://www.w3.org/2000/svg">
<g clip-path="url(#clip0)">
<path fill-rule="evenodd" clip-rule="evenodd" d="M9.13731 3.2285C9.74476 4.01363 10.2485 4.89555 10.6388 5.8465V0.817028H6.35455C7.38517 1.37212 8.32931 2.18419 9.13731 3.2285Z" fill="white"/>
<path fill-rule="evenodd" clip-rule="evenodd" d="M2.96141 1.35287C2.16775 1.35287 1.4043 1.52199 0.68927 1.83494V10.736H10.2014C10.1278 5.54483 6.90831 1.35287 2.96141 1.35287Z" fill="white"/>
<path d="M16.3232 9.20274L21.6381 2.78836H16.4903V1.38999H23.6972V2.55736L18.3823 8.97188H23.6972V10.3701H16.3232V9.20274Z" fill="white"/>
<path d="M25.6791 1.38999H32.3455V2.81394H27.2492V5.12311H31.7666V6.5472H27.2492V8.94603H32.4096V10.37H25.6791V1.38999Z" fill="white"/>
<path d="M34.3015 1.38999H38.3166C38.8828 1.38999 39.3848 1.46919 39.8224 1.62731C40.2598 1.78558 40.6244 2.00571 40.9162 2.288C41.1564 2.53619 41.3411 2.8226 41.4697 3.14751C41.5984 3.47256 41.6626 3.83185 41.6626 4.2251V4.25081C41.6626 4.61863 41.6091 4.95 41.5019 5.24508C41.3944 5.54015 41.2463 5.80113 41.0577 6.02759C40.8689 6.25419 40.6438 6.44683 40.3822 6.60481C40.1205 6.76321 39.8308 6.88504 39.5136 6.97043L41.9457 10.3701H40.0797L37.8594 7.23993H37.8337H35.8714V10.3701H34.3013V1.38999H34.3015ZM38.1954 5.84155C38.763 5.84155 39.2151 5.70653 39.5504 5.43579C39.8862 5.16519 40.0542 4.79793 40.0542 4.33414V4.30843C40.0542 3.81893 39.8903 3.44726 39.5633 3.19385C39.2365 2.94058 38.7758 2.8138 38.182 2.8138H35.8714V5.84141H38.1954V5.84155Z" fill="white"/>
<path d="M47.9038 10.5241C47.2087 10.5241 46.574 10.4023 45.9994 10.1586C45.4245 9.91499 44.9312 9.58361 44.5194 9.16424C44.1075 8.74528 43.7858 8.25578 43.5544 7.69546C43.3224 7.13543 43.2067 6.53868 43.2067 5.90576V5.88005C43.2067 5.24714 43.3225 4.65066 43.5544 4.09035C43.7858 3.53031 44.1118 3.03834 44.5323 2.61498C44.9523 2.19161 45.4501 1.85598 46.0253 1.60793C46.5999 1.36001 47.2347 1.23585 47.9297 1.23585C48.6245 1.23585 49.2595 1.35768 49.8344 1.60146C50.409 1.84511 50.9025 2.17676 51.3144 2.59573C51.726 3.01483 52.0476 3.50446 52.2793 4.06464C52.5113 4.62481 52.6271 5.22143 52.6271 5.8542V5.87991C52.6271 6.51296 52.5112 7.10958 52.2793 7.66948C52.0476 8.22979 51.7217 8.72149 51.3014 9.14485C50.8809 9.56808 50.3833 9.90399 49.8085 10.1519C49.2336 10.3998 48.5988 10.5241 47.9038 10.5241ZM47.9296 9.07445C48.3738 9.07445 48.7817 8.99113 49.1531 8.82434C49.5249 8.65741 49.8431 8.43109 50.1079 8.14454C50.3724 7.85799 50.5799 7.52221 50.7294 7.13735C50.8789 6.75249 50.9536 6.34191 50.9536 5.9059V5.88019C50.9536 5.44404 50.8789 5.0314 50.7294 4.64214C50.5799 4.25301 50.3702 3.91531 50.1014 3.62876C49.8323 3.34235 49.5098 3.11355 49.1337 2.94236C48.7578 2.77131 48.3479 2.68579 47.9036 2.68579C47.4594 2.68579 47.0515 2.76911 46.68 2.9359C46.3083 3.10269 45.9901 3.32943 45.7253 3.61584C45.4605 3.90253 45.2533 4.23803 45.1035 4.62289C44.954 5.00775 44.8794 5.41833 44.8794 5.85448V5.88019C44.8794 6.31634 44.954 6.72898 45.1035 7.11796C45.2533 7.5075 45.4627 7.8452 45.7318 8.13161C46.0009 8.4183 46.3233 8.64696 46.6992 8.81788C47.0753 8.98893 47.4853 9.07445 47.9296 9.07445Z" fill="white"/>
<path d="M54.5443 1.38999H57.9034C58.6069 1.38999 59.2522 1.50343 59.8404 1.73003C60.428 1.95663 60.9339 2.27095 61.3587 2.67286C61.7836 3.07491 62.1114 3.5475 62.3434 4.09063C62.5751 4.63375 62.691 5.22184 62.691 5.85461V5.88033C62.691 6.51338 62.5751 7.10353 62.3434 7.65064C62.1114 8.19789 61.7836 8.67295 61.3587 9.07459C60.9339 9.47691 60.428 9.79316 59.8404 10.0239C59.2522 10.2549 58.6069 10.3703 57.9034 10.3703H54.5443V1.38999ZM57.8905 8.94616C58.3622 8.94616 58.7913 8.87123 59.1773 8.7208C59.5634 8.57038 59.8918 8.36028 60.1618 8.08981C60.432 7.81908 60.642 7.49691 60.7924 7.12319C60.9425 6.7496 61.0179 6.34398 61.0179 5.90576V5.88005C61.0179 5.44198 60.9425 5.03415 60.7924 4.6563C60.642 4.27831 60.432 3.95423 60.1618 3.68363C59.8918 3.41289 59.5634 3.20045 59.1773 3.04576C58.7913 2.89121 58.3622 2.8138 57.8905 2.8138H56.1143V8.94603H57.8905V8.94616Z" fill="white"/>
<path d="M64.6079 1.38999H66.178V5.12325H70.5024V1.38999H72.0725V10.3703H70.5024V6.5857H66.178V10.3701H64.6079V1.38999Z" fill="white"/>
<path d="M77.58 1.32578H79.0471L83.0107 10.3701H81.3378L80.424 8.20202H76.1642L75.2375 10.3701H73.616L77.58 1.32578ZM79.8451 6.80392L78.2877 3.21173L76.7433 6.80392H79.8451Z" fill="white"/>
</g>
<defs>
<clipPath id="clip0">
<rect width="84" height="11" fill="white" transform="translate(0 0.276512)"/>
</clipPath>
</defs>
</svg>
